<svg xmlns="http://www.w3.org/2000/svg" viewBox="0 0 64 64">
  <defs>
    <linearGradient id="grad" x1="0%" y1="0%" x2="100%" y2="100%">
      <stop offset="0%" stop-color="#234FFF" />
      <stop offset="100%" stop-color="#142A8F" />
    </linearGradient>
  </defs>
  <rect width="64" height="64" rx="18" fill="url(#grad)" />
  <path
    d="M21 22.5c0-4.14 3.36-7.5 7.5-7.5h13c4.14 0 7.5 3.36 7.5 7.5s-3.36 7.5-7.5 7.5h-12c-4.42 0-8 3.58-8 8s3.58 8 8 8h13.5c4 0 7.5 3.08 7.5 7 0 3.86-3.5 7-7.5 7H28.5c-7.73 0-14-6.27-14-14 0-5.4 3.15-10.09 7.75-12.37-4.8-1.86-8.25-6.5-8.25-12.13z"
    fill="#F8FAFF"
    opacity="0.95"
  />
</svg>
